<?xml version="1.0" encoding="UTF-8" standalone="no"?>
<svg
   version="1.1"
   id="Layer_1"
   x="0px"
   y="0px"
   viewBox="0 0 351.99996 192"
   xml:space="preserve"
   sodipodi:docname="Infinity_Symbol.svg"
   width="351.99997"
   height="192.00002"
   inkscape:version="1.2.1 (9c6d41e410, 2022-07-14)"
   xmlns:inkscape="http://www.inkscape.org/namespaces/inkscape"
   xmlns:sodipodi="http://sodipodi.sourceforge.net/DTD/sodipodi-0.dtd"
   xmlns="http://www.w3.org/2000/svg"
   xmlns:svg="http://www.w3.org/2000/svg"><defs
   id="defs8796"><inkscape:path-effect
     effect="fillet_chamfer"
     id="path-effect17344"
     is_visible="true"
     lpeversion="1"
     nodesatellites_param="F,0,0,1,0,6.35,0,1 @ F,0,0,1,0,6.35,0,1 @ F,0,0,1,0,6.35,0,1 @ F,0,0,1,0,6.35,0,1 | F,0,1,1,0,0,0,1 @ F,0,1,1,0,0,0,1 @ F,0,1,1,0,0,0,1 @ F,0,1,1,0,0,0,1"
     unit="px"
     method="auto"
     mode="F"
     radius="0"
     chamfer_steps="1"
     flexible="false"
     use_knot_distance="true"
     apply_no_radius="true"
     apply_with_radius="true"
     only_selected="true"
     hide_knots="false" /></defs><sodipodi:namedview
   id="namedview8794"
   pagecolor="#505050"
   bordercolor="#ffffff"
   borderopacity="1"
   inkscape:showpageshadow="false"
   inkscape:pageopacity="0"
   inkscape:pagecheckerboard="0"
   inkscape:deskcolor="#505050"
   showgrid="false"
   inkscape:zoom="4.4013383"
   inkscape:cx="172.67475"
   inkscape:cy="95.879927"
   inkscape:window-width="2880"
   inkscape:window-height="1526"
   inkscape:window-x="2869"
   inkscape:window-y="-11"
   inkscape:window-maximized="1"
   inkscape:current-layer="Layer_1"><inkscape:grid
     type="xygrid"
     id="grid9691"
     spacingx="31.999999"
     spacingy="31.999999"
     empspacing="4"
     originx="-1024"
     originy="-383.99994" /></sodipodi:namedview>

<path
   id="path17334"
   style="fill:#ffffff;fill-opacity:1;stroke:none;stroke-width:32;stroke-dasharray:none;stroke-opacity:1"
   d="m 236.81246,70.416056 c 5.5336,-4.15746 12.2661,-6.4087 19.1875,-6.41601 17.6731,1e-5 32,14.3269 32,32 0,17.673104 -14.3269,31.999974 -32,32.000004 -6.9216,-0.008 -13.6541,-2.25981 -19.1875,-6.41797 l -34.1242,-25.582684 z m 19.1875,89.584014 c 35.3462,-4e-5 64,-28.65381 64,-64.000024 0,-35.34622 -28.6538,-64 -64,-64 -13.8466,0.003 -27.3187,4.49677 -38.3946,12.80664 l -41.5974,31.19056 -41.6096,-31.19434 c -11.0773,-8.30928 -24.5509,-12.80161 -38.398395,-12.80274 -35.3462,1e-5 -64,28.65378 -64,64 0,35.346244 28.6538,64.000014 64,64.000014 13.847495,-0.001 27.321095,-4.49348 38.398395,-12.80273 l 41.6051,-31.19192 41.6019,31.18598 c 11.0757,8.3105 24.5478,12.80489 38.3946,12.80856 z m -106.6762,-63.994504 -34.1285,25.590194 c -5.5373,4.15487 -12.2726,6.40203 -19.195295,6.40429 -17.6731,-3e-5 -32,-14.3269 -32,-32.000004 0,-17.6731 14.3269,-31.99999 32,-32 6.921395,0.007 13.653895,2.25855 19.187495,6.41601 z"
   sodipodi:nodetypes="cccccscccsccccsccccccccsccc" /></svg>
